<svg width="29" height="27" viewBox="0 0 29 27" fill="none" xmlns="http://www.w3.org/2000/svg">
<path d="M14.9406 3.28118C18.3816 3.28118 18.7894 3.29328 20.1484 3.3516C20.9655 3.36054 21.7748 3.50161 22.5409 3.76863C23.1009 3.9624 23.6074 4.27188 24.023 4.6742C24.4514 5.06447 24.7809 5.54016 24.9872 6.06611C25.2715 6.78556 25.4217 7.54564 25.4313 8.31298C25.4933 9.58937 25.5062 9.97228 25.5062 13.2039C25.5062 16.4356 25.4933 16.8185 25.4313 18.0949C25.4217 18.8623 25.2715 19.6223 24.9872 20.3418C24.7727 20.8639 24.4443 21.338 24.0229 21.7337C23.6016 22.1294 23.0968 22.4378 22.5409 22.6393C21.7748 22.9063 20.9655 23.0474 20.1484 23.0563C18.7894 23.1146 18.3816 23.1267 14.9406 23.1267C11.4996 23.1267 11.0918 23.1146 9.73276 23.0563C8.91569 23.0474 8.10638 22.9063 7.34032 22.6393C6.78029 22.4455 6.27378 22.136 5.85822 21.7337C5.42984 21.3434 5.10031 20.8677 4.89398 20.3418C4.60967 19.6223 4.45946 18.8623 4.44994 18.0949C4.38784 16.8185 4.37496 16.4356 4.37496 13.2039C4.37496 9.97228 4.38784 9.58937 4.44994 8.31298C4.45946 7.54564 4.60967 6.78556 4.89398 6.06611C5.10031 5.54016 5.42984 5.06447 5.85822 4.6742C6.27378 4.27188 6.78029 3.9624 7.34032 3.76863C8.10638 3.50161 8.91569 3.36054 9.73276 3.3516C11.0918 3.29328 11.4996 3.28118 14.9406 3.28118ZM14.9406 1.10033C11.441 1.10033 11.0016 1.11463 9.62731 1.17295C8.55831 1.1937 7.50071 1.38379 6.4991 1.73522C5.64211 2.0468 4.86399 2.52326 4.21469 3.134C3.56539 3.74474 3.05927 4.47626 2.72883 5.28158C2.35464 6.22225 2.15223 7.2155 2.13014 8.21946C2.06804 9.50464 2.05281 9.91726 2.05281 13.2039C2.05281 16.4906 2.06804 16.9033 2.13014 18.1939C2.15223 19.1979 2.35464 20.1911 2.72883 21.1318C3.0606 21.9367 3.56793 22.6674 4.21824 23.2772C4.86855 23.887 5.64746 24.3623 6.50495 24.6727C7.50657 25.0241 8.56417 25.2142 9.63317 25.2349C11.0016 25.2933 11.441 25.3076 14.9406 25.3076C18.4402 25.3076 18.8796 25.2933 20.2539 25.2349C21.3229 25.2142 22.3805 25.0241 23.3821 24.6727C24.2391 24.3611 25.0172 23.8846 25.6665 23.2739C26.3158 22.6632 26.8219 21.9316 27.1524 21.1263C27.5266 20.1856 27.729 19.1924 27.7511 18.1884C27.8131 16.9033 27.8284 16.4906 27.8284 13.2039C27.8284 9.91726 27.8131 9.50464 27.7511 8.21396C27.729 7.21 27.5266 6.21675 27.1524 5.27608C26.8206 4.47124 26.3133 3.74046 25.663 3.13067C25.0126 2.52087 24.2337 2.04555 23.3762 1.73522C22.3746 1.38379 21.317 1.1937 20.248 1.17295C18.8796 1.11463 18.4402 1.10033 14.9406 1.10033Z" fill="white"/>
<path d="M14.9406 6.98819C13.6316 6.98819 12.352 7.35274 11.2636 8.03573C10.1752 8.71873 9.32687 9.6895 8.82593 10.8253C8.325 11.9611 8.19393 13.2108 8.4493 14.4166C8.70468 15.6223 9.33503 16.7299 10.2606 17.5992C11.1862 18.4684 12.3655 19.0604 13.6494 19.3003C14.9333 19.5401 16.264 19.417 17.4734 18.9466C18.6827 18.4761 19.7164 17.6794 20.4436 16.6572C21.1709 15.6351 21.5591 14.4333 21.5591 13.2039C21.5591 11.5554 20.8618 9.97442 19.6206 8.80874C18.3794 7.64306 16.6959 6.98819 14.9406 6.98819ZM14.9406 17.2389C14.0909 17.2389 13.2602 17.0022 12.5537 16.5589C11.8472 16.1155 11.2965 15.4853 10.9713 14.748C10.6461 14.0108 10.5611 13.1995 10.7268 12.4168C10.8926 11.6341 11.3018 10.9151 11.9026 10.3508C12.5035 9.78655 13.269 9.40226 14.1024 9.24657C14.9358 9.09088 15.7997 9.17079 16.5847 9.47618C17.3698 9.78157 18.0408 10.2987 18.5129 10.9623C18.9849 11.6258 19.2369 12.4059 19.2369 13.2039C19.2369 14.2741 18.7843 15.3004 17.9785 16.0571C17.1728 16.8138 16.08 17.2389 14.9406 17.2389Z" fill="white"/>
<path d="M21.8203 8.19525C22.6745 8.19525 23.3669 7.54497 23.3669 6.74282C23.3669 5.94066 22.6745 5.29038 21.8203 5.29038C20.9662 5.29038 20.2738 5.94066 20.2738 6.74282C20.2738 7.54497 20.9662 8.19525 21.8203 8.19525Z" fill="white"/>
</svg>
