<svg width="29" height="29" viewBox="0 0 29 29" fill="none" xmlns="http://www.w3.org/2000/svg">
<g clip-path="url(#clip0_24_114)">
<path d="M28.1188 5.38944C27.0644 5.85809 26.0099 6.20957 24.8383 6.32673C26.0099 5.62376 26.9472 4.45215 27.4158 3.16337C26.2442 3.86634 25.0726 4.33498 23.7838 4.56931C22.7294 3.39769 21.2063 2.69472 19.566 2.69472C16.4026 2.69472 13.8251 5.27228 13.8251 8.43564C13.8251 8.90429 13.8251 9.37294 13.9422 9.72442C9.02145 9.4901 4.80363 7.14686 1.99175 3.63201C1.40594 4.56931 1.17162 5.5066 1.17162 6.56106C1.17162 8.5528 2.22607 10.3102 3.74917 11.3647C2.81188 11.3647 1.87459 11.1304 1.17162 10.6617C1.17162 10.6617 1.17162 10.6617 1.17162 10.7789C1.17162 13.5908 3.16337 15.934 5.74092 16.4026C5.27228 16.5198 4.80363 16.637 4.21782 16.637C3.86634 16.637 3.51485 16.637 3.16337 16.5198C3.86634 18.863 5.97525 20.5033 8.5528 20.5033C6.56106 22.0264 4.10066 22.9637 1.40594 22.9637C0.937294 22.9637 0.468647 22.9637 0 22.8465C2.57756 24.4868 5.62376 25.4241 8.78713 25.4241C19.4488 25.4241 25.1898 16.637 25.1898 9.02145C25.1898 8.78713 25.1898 8.55281 25.1898 8.31848C26.3614 7.49835 27.2987 6.44389 28.1188 5.38944Z" fill="white"/>
</g>
<defs>
<clipPath id="clip0_24_114">
<rect width="28.1188" height="28.1188" fill="white"/>
</clipPath>
</defs>
</svg>
